<?xml version="1.0" standalone="no"?>
<!DOCTYPE svg PUBLIC "-//W3C//DTD SVG 20010904//EN"
 "http://www.w3.org/TR/2001/REC-SVG-20010904/DTD/svg10.dtd">
<svg version="1.0" xmlns="http://www.w3.org/2000/svg"
 width="871.000000pt" height="174.000000pt" viewBox="0 0 871.000000 174.000000"
 preserveAspectRatio="xMidYMid meet">

<g transform="translate(0.000000,174.000000) scale(0.100000,-0.100000)"
fill="#000000" stroke="none">
<path fill="#c3c1c3" d="M1218 1723 c-10 -2 -18 -6 -18 -8 0 -6 268 -584 274 -592 1 -1 48 29
104 67 122 83 173 100 301 100 106 0 108 -1 220 -83 79 -59 146 -81 221 -74
152 13 252 142 237 304 -15 155 -121 249 -272 241 -77 -4 -121 -22 -208 -87
-118 -88 -196 -110 -304 -86 -55 12 -91 29 -149 68 -42 29 -102 69 -132 90
-84 56 -195 81 -274 60z"/>
<path fill='#ff4e48' d="M1078 1650 c-86 -57 -123 -139 -116 -254 6 -86 29 -138 103 -231 84
-104 97 -149 98 -331 0 -148 0 -152 -30 -215 -17 -35 -53 -95 -81 -132 -65
-87 -86 -149 -80 -236 6 -78 22 -112 78 -168 92 -92 246 -105 371 -30 44 26
59 44 87 97 31 59 33 71 30 135 -4 80 -23 123 -100 228 -84 114 -97 157 -98
325 0 166 12 229 47 245 13 6 22 14 21 17 -22 55 -273 580 -278 580 -4 0 -27
-14 -52 -30z"/>
<path fill='#ff4e48'  d="M177 1645 c-189 -70 -229 -334 -68 -450 127 -92 285 -63 371 69 42
63 52 160 26 230 -48 125 -204 196 -329 151z"/>
<path fill='#ff4e48' d="M5800 1144 c-168 -33 -246 -116 -238 -254 7 -124 75 -185 243 -215
170 -31 213 -45 241 -78 21 -25 25 -38 21 -70 -3 -21 -15 -49 -27 -62 -45 -48
-193 -64 -278 -30 -23 10 -60 37 -81 62 l-39 44 -61 -31 -61 -30 19 -39 c32
-62 104 -118 184 -142 101 -31 257 -24 342 15 111 51 155 114 155 226 0 155
-90 227 -325 261 -130 18 -185 49 -185 103 0 71 60 110 167 109 76 -1 133 -22
181 -66 l22 -21 55 27 c30 15 55 34 55 42 0 30 -83 102 -145 125 -59 22 -189
34 -245 24z"/>
<path fill='#ff4e48' d="M4028 1121 c-110 -36 -188 -105 -240 -216 -32 -68 -33 -74 -33 -195
0 -152 19 -210 96 -295 92 -100 230 -144 390 -124 94 12 168 47 227 107 178
183 157 512 -44 665 -97 74 -267 99 -396 58z m236 -133 c24 -7 60 -31 87 -58
106 -103 118 -285 28 -409 -81 -112 -283 -127 -394 -29 -57 50 -85 123 -85
218 0 137 64 238 175 278 41 15 139 15 189 0z"/>
<path fill='#ff4e48'  d="M2960 1060 l0 -70 130 0 130 0 0 -345 0 -346 75 3 76 3 2 340 2 340
133 3 132 3 0 69 0 70 -340 0 -340 0 0 -70z"/>
<path fill="#c3c1c3" d="M4760 1060 l0 -70 305 0 305 0 0 70 0 70 -305 0 -305 0 0 -70z"/>
<path fill="#c3c1c3" d="M7310 1060 l0 -70 305 0 305 0 0 70 0 70 -305 0 -305 0 0 -70z"/>
<path fill="#c3c1c3" d="M8090 1060 l0 -70 310 0 310 0 0 70 0 70 -310 0 -310 0 0 -70z"/>
<path fill='#ff4e48' d="M6400 710 l0 -410 75 0 75 0 0 165 0 165 205 0 205 0 0 -165 0 -165
75 0 75 0 0 410 0 410 -75 0 -75 0 -2 -172 -3 -173 -202 -3 -203 -2 0 175 0
175 -75 0 -75 0 0 -410z"/>
<path fill='#ff4e48' d="M4760 550 l0 -240 305 0 305 0 0 75 0 75 -230 0 -230 0 0 95 0 95
225 0 225 0 0 70 0 70 -300 0 -300 0 0 -240z"/>
<path fill='#ff4e48' d="M7310 550 l0 -240 305 0 305 0 0 75 0 75 -230 0 -230 0 0 95 0 95
225 0 225 0 0 70 0 70 -300 0 -300 0 0 -240z"/>
<path fill='#ff4e48' d="M8090 550 l0 -240 310 0 310 0 0 75 0 75 -235 0 -235 0 0 95 0 95
225 0 225 0 0 70 0 70 -300 0 -300 0 0 -240z"/>
</g>
</svg>
