<svg version="1.0" xmlns="http://www.w3.org/2000/svg"
 width="944.000000pt" height="483.000000pt" viewBox="0 0 944.000000 483.000000"
 preserveAspectRatio="xMidYMid meet">

<g transform="translate(0.000000,483.000000) scale(0.100000,-0.100000)"
fill="#000000" >
<path fill="#c3c1c3" d="M4742 4810 c-18 -4 -34 -9 -36 -11 -2 -2 89 -201 202 -441 194 -413
207 -436 226 -426 12 6 64 41 116 78 178 127 249 153 447 165 121 7 124 7 175
-20 28 -15 91 -56 139 -91 153 -112 262 -148 385 -125 174 32 288 153 315 335
29 193 -58 369 -219 444 -45 21 -75 27 -148 30 -84 4 -97 1 -166 -28 -42 -17
-108 -56 -148 -86 -194 -147 -310 -184 -469 -150 -99 21 -187 67 -328 173
-125 94 -208 137 -293 153 -61 11 -150 12 -198 0z"/>
<path fill='#ff4e48' d="M4561 4727 c-68 -34 -138 -108 -174 -184 -27 -59 -32 -81 -35 -168
-3 -83 0 -111 17 -163 23 -69 82 -163 156 -252 53 -63 99 -153 115 -225 16
-67 16 -406 1 -470 -18 -74 -63 -159 -139 -261 -138 -186 -171 -330 -110 -491
38 -102 142 -195 255 -229 108 -31 257 -18 354 31 173 89 254 301 186 487 -23
65 -55 117 -152 248 -30 41 -69 109 -87 150 l-33 75 0 240 c0 215 3 245 20
289 15 38 27 52 50 59 17 5 31 11 33 12 4 4 -396 857 -406 867 -4 4 -27 -3
-51 -15z"/>
<path fill='#ff4e48' d="M3201 4699 c-49 -15 -131 -70 -170 -114 -99 -113 -120 -296 -50 -435
22 -45 112 -131 164 -158 171 -89 382 -34 489 128 24 36 47 75 50 87 59 192
-26 389 -202 471 -47 22 -73 27 -152 29 -52 1 -110 -3 -129 -8z"/>
<path fill='#ff4e48' d="M4680 1433 c-63 -10 -176 -46 -221 -69 -61 -30 -130 -97 -158 -153
-41 -80 -44 -236 -7 -326 23 -55 100 -129 169 -163 67 -33 177 -60 352 -87
143 -22 204 -46 249 -95 41 -45 52 -91 37 -147 -27 -98 -142 -157 -308 -156
-133 0 -217 29 -293 100 -32 29 -63 66 -70 83 l-12 30 -109 -56 -109 -57 28
-50 c35 -66 110 -147 170 -185 26 -17 85 -43 132 -58 78 -25 98 -28 245 -28
179 0 256 13 359 65 120 59 192 151 216 277 26 128 -6 254 -84 340 -81 88
-194 132 -430 168 -123 18 -227 46 -263 69 -33 22 -63 74 -63 110 0 54 40 107
105 140 55 28 65 30 175 30 114 0 117 -1 192 -38 42 -20 90 -53 107 -73 l31
-35 100 54 99 53 -34 51 c-69 103 -190 175 -339 202 -57 11 -214 13 -266 4z"/>
<path fill='#ff4e48' d="M1865 1419 c-153 -21 -292 -93 -394 -205 -61 -66 -130 -200 -158
-304 -24 -90 -24 -300 0 -390 34 -121 92 -225 170 -304 115 -116 219 -165 396
-187 230 -28 434 26 573 151 151 135 237 358 225 578 -18 327 -204 572 -490
646 -76 20 -234 27 -322 15z m239 -234 c84 -22 121 -42 180 -96 124 -113 177
-320 130 -508 -23 -90 -47 -135 -111 -202 -94 -99 -237 -143 -389 -120 -224
33 -353 184 -371 431 -8 126 33 267 107 359 95 121 289 179 454 136z"/>
<path fill="#c3c1c3" d="M2950 1295 l0 -115 505 0 505 0 0 115 0 115 -505 0 -505 0 0 -115z"/>
<path fill="#c3c1c3" d="M7140 1295 l0 -115 505 0 505 0 0 115 0 115 -505 0 -505 0 0 -115z"/>
<path fill="#c3c1c3" d="M8420 1295 l0 -115 510 0 510 0 0 115 0 115 -510 0 -510 0 0 -115z"/>
<path fill='#ff4e48' d="M0 1290 l0 -110 215 0 215 0 0 -565 0 -565 125 0 125 0 2 563 3 562
218 3 217 2 0 110 0 110 -560 0 -560 0 0 -110z"/>
<path fill='#ff4e48' d="M5642 718 l3 -673 125 0 125 0 3 273 2 272 335 0 335 0 0 -275 0
-276 123 3 122 3 3 673 2 672 -125 0 -125 0 -2 -282 -3 -283 -332 -3 -333 -2
0 285 0 285 -130 0 -130 0 2 -672z"/>
<path fill='#ff4e48' d="M2950  455 l0 -395 505 0 505 0 0 120 0 120 -377 2 -378 3 0 155 0
155 368 3 367 2 0 115 0 115 -495 0 -495 0 0 -395z"/>
<path fill='#ff4e48' d="M7140 455 l0 -395 505 0 505 0 0 125 0 125 -380 0 -380 0 0 155 0
155 365 0 365 0 0 115 0 115 -490 0 -490 0 0 -395z"/>
<path fill='#ff4e48' d="M8420 455 l0 -395 510 0 510 0 0 125 0 125 -385 0 -386 0 3 153 3
152 368 3 367 2 0 115 0 115 -495 0 -495 0 0 -395z"/>
</g>
</svg>
